<svg t="1663648146706" class="icon" viewBox="0 0 1024 1024" version="1.1" xmlns="http://www.w3.org/2000/svg" p-id="4262" width="200" height="200"><path fill="#1890FF" d="M632.883315 454.338803l-237.232912 235.057018a20.368788 20.368788 0 0 1-28.407508 0 19.703931 19.703931 0 0 1 0-28.044859l278.030929-275.552827a29.435014 29.435014 0 0 1 41.644197 0l62.677843 62.133868a29.193248 29.193248 0 0 1 0 41.402432l-278.03093 275.431944a128.498642 128.498642 0 0 1-180.297013 0 125.839216 125.839216 0 0 1 0-178.785975l237.353795-235.057018a32.759296 32.759296 0 0 0 0-46.963051 33.847244 33.847244 0 0 0-47.507024 0L243.760897 538.89647a191.660017 191.660017 0 0 0 0 272.651635 196.132688 196.132688 0 0 0 275.311061 0l299.004132-296.163381a66.123008 66.123008 0 0 0 0-94.107425l-104.442923-103.11321a67.513163 67.513163 0 0 0-95.014048 0l-298.822807 296.163381a85.826939 85.826939 0 0 0 0 122.212726 87.761067 87.761067 0 0 0 123.481998 0l237.353795-235.057018a32.759296 32.759296 0 0 0 0-46.963051 34.08901 34.08901 0 0 0-47.627907 0zM699.368972 29.011923l239.408806 250.711368A94.832723 94.832723 0 0 1 965.3116 345.48365v583.80451a94.228308 94.228308 0 0 1-93.744777 94.71184h-719.253925A94.28875 94.28875 0 0 1 58.689005 929.28816V94.71184A94.228308 94.228308 0 0 1 152.433781 0h479.784677A93.261244 93.261244 0 0 1 699.368972 29.011923z" p-id="4263"></path></svg>